<svg width="28" height="42" viewBox="0 0 28 42" fill="none" xmlns="http://www.w3.org/2000/svg">
<g clip-path="url(#clip0_111_44618)">
<path d="M6.99805 42C10.862 42 13.998 38.864 13.998 35V28H6.99805C3.13405 28 -0.00195312 31.136 -0.00195312 35C-0.00195312 38.864 3.13405 42 6.99805 42Z" fill="#0ACF83"/>
<path d="M-0.00195312 21C-0.00195312 17.136 3.13405 14 6.99805 14H13.998V28H6.99805C3.13405 28 -0.00195312 24.864 -0.00195312 21Z" fill="#A259FF"/>
<path d="M-0.00195312 7C-0.00195312 3.136 3.13405 0 6.99805 0H13.998V14H6.99805C3.13405 14 -0.00195312 10.864 -0.00195312 7Z" fill="#F24E1E"/>
<path d="M13.998 0H20.998C24.862 0 27.998 3.136 27.998 7C27.998 10.864 24.862 14 20.998 14H13.998V0Z" fill="#FF7262"/>
<path d="M27.998 21C27.998 24.864 24.862 28 20.998 28C17.134 28 13.998 24.864 13.998 21C13.998 17.136 17.134 14 20.998 14C24.862 14 27.998 17.136 27.998 21Z" fill="#1ABCFE"/>
</g>
<defs>
<clipPath id="clip0_111_44618">
<rect width="28.0056" height="42" fill="white" transform="translate(-0.00585938)"/>
</clipPath>
</defs>
</svg>
