<svg width="42" height="42" viewBox="0 0 42 42" fill="none" xmlns="http://www.w3.org/2000/svg">
<g clip-path="url(#clip0_111_44609)">
<path d="M28.8319 27.2425C27.4992 28.4255 25.8364 29.8978 22.8126 29.8978H21.0094C18.8237 29.8978 16.8363 29.1044 15.4142 27.6643C14.025 26.2578 13.2598 24.3324 13.2598 22.2423V19.772C13.2598 17.6819 14.025 15.7564 15.4142 14.35C16.8363 12.9098 18.8237 12.1164 21.0094 12.1164H22.8126C25.8364 12.1164 27.4976 13.5887 28.8319 14.7718C30.2157 15.9987 31.4112 17.0578 34.5957 17.0578C35.0815 17.058 35.5665 17.0192 36.0461 16.9418C36.0461 16.9324 36.0398 16.9238 36.0359 16.9144C35.845 16.4406 35.621 15.9808 35.3656 15.5385L33.2363 11.8499C32.2763 10.1872 30.8956 8.80654 29.2329 7.84654C27.5703 6.88654 25.6842 6.38105 23.7643 6.38086H19.505C17.5851 6.38105 15.699 6.88654 14.0363 7.84654C12.3737 8.80654 10.993 10.1872 10.033 11.8499L7.90367 15.5385C6.9438 17.2012 6.43848 19.0873 6.43848 21.0071C6.43848 22.927 6.9438 24.8131 7.90367 26.4758L10.033 30.1644C10.993 31.8269 12.3738 33.2075 14.0364 34.1674C15.6991 35.1272 17.5851 35.6326 19.505 35.6326H23.7643C25.6842 35.6326 27.5702 35.1272 29.2329 34.1674C30.8955 33.2075 32.2763 31.8269 33.2363 30.1644L35.3656 26.4758C35.621 26.0334 35.845 25.5736 36.0359 25.0999C36.0359 25.0905 36.043 25.0818 36.0461 25.0724C35.5665 24.9951 35.0815 24.9563 34.5957 24.9564C31.4112 24.9564 30.2157 26.0156 28.8319 27.2425Z" fill="#006BFF"/>
<path d="M22.8126 14.3535H21.0094C17.6838 14.3535 15.498 16.729 15.498 19.77V22.2403C15.498 25.2814 17.6838 27.6568 21.0094 27.6568H22.8126C27.6591 27.6568 27.2812 22.7178 34.5957 22.7178C35.2892 22.7171 35.9812 22.7804 36.6631 22.9067C36.8849 21.65 36.8849 20.3642 36.6631 19.1076C35.9813 19.2345 35.2892 19.298 34.5957 19.2973C27.2789 19.2965 27.6591 14.3535 22.8126 14.3535Z" fill="#006BFF"/>
<path d="M40.8665 24.7123C39.6197 23.801 38.1824 23.1845 36.6628 22.9092C36.6628 22.9217 36.6589 22.9342 36.6566 22.946C36.5261 23.6747 36.3215 24.3882 36.0458 25.0753C37.3013 25.2695 38.4926 25.7597 39.5212 26.5053C39.5212 26.5162 39.5149 26.5272 39.511 26.539C38.928 28.4322 38.047 30.2204 36.9012 31.8363C35.7684 33.4372 34.393 34.8518 32.8245 36.029C29.0274 38.8855 24.288 40.1947 19.5631 39.6925C14.8383 39.1902 10.48 36.9139 7.36829 33.323C4.25661 29.7322 2.62338 25.0944 2.79837 20.3461C2.97336 15.5978 4.94354 11.0928 8.31108 7.74077C10.5988 5.45474 13.4384 3.79859 16.5545 2.93289C19.6707 2.06719 22.9576 2.0213 26.0967 2.79968C29.2358 3.57806 32.1205 5.1543 34.4712 7.37558C36.8218 9.59686 38.5587 12.3878 39.5134 15.4778C39.5173 15.4896 39.5204 15.5006 39.5236 15.5116C38.4942 16.2572 37.3021 16.7471 36.0458 16.9407C36.3214 17.6285 36.5263 18.3424 36.6573 19.0716C36.6573 19.0833 36.6573 19.0951 36.6628 19.1061C38.1826 18.8315 39.6201 18.2149 40.8665 17.3029C42.0652 16.4163 41.8332 15.4143 41.6505 14.8217C39.0093 6.24102 31.0213 0.00683594 21.5768 0.00683594C9.97938 0.00683594 0.577148 9.40907 0.577148 21.0064C0.577148 32.6038 9.97938 42.0068 21.5768 42.0068C31.0213 42.0068 39.0093 35.7727 41.6466 27.1944C41.8332 26.6017 42.0652 25.5998 40.8665 24.7123Z" fill="#006BFF"/>
<path d="M36.0461 16.9406C35.5665 17.018 35.0815 17.0568 34.5957 17.0566C31.4112 17.0566 30.2156 15.9975 28.8319 14.7706C27.4991 13.5875 25.8363 12.1152 22.8125 12.1152H21.0094C18.8237 12.1152 16.8363 12.9086 15.4141 14.3488C14.0249 15.7552 13.2598 17.6807 13.2598 19.7708V22.2411C13.2598 24.3312 14.0249 26.2566 15.4141 27.6631C16.8363 29.1032 18.8237 29.8966 21.0094 29.8966H22.8125C25.8363 29.8966 27.4976 28.4243 28.8319 27.2413C30.2156 26.0144 31.4112 24.9552 34.5957 24.9552C35.0815 24.9551 35.5665 24.9939 36.0461 25.0712C36.3217 24.3842 36.5263 23.6707 36.6568 22.942C36.6568 22.9302 36.6615 22.9177 36.663 22.9051C35.9812 22.7788 35.2892 22.7155 34.5957 22.7162C27.2788 22.7162 27.6591 27.6552 22.8125 27.6552H21.0094C17.6837 27.6552 15.498 25.2798 15.498 22.2387V19.7716C15.498 16.7305 17.6837 14.3551 21.0094 14.3551H22.8125C27.6591 14.3551 27.2812 19.2941 34.5957 19.2941C35.2892 19.2948 35.9813 19.2313 36.663 19.1044C36.663 19.0934 36.663 19.0817 36.6576 19.0699C36.5264 18.3413 36.3215 17.6278 36.0461 16.9406Z" fill="#0AE9EF"/>
<path d="M36.0461 16.9406C35.5665 17.018 35.0815 17.0568 34.5957 17.0566C31.4112 17.0566 30.2156 15.9975 28.8319 14.7706C27.4991 13.5875 25.8363 12.1152 22.8125 12.1152H21.0094C18.8237 12.1152 16.8363 12.9086 15.4141 14.3488C14.0249 15.7552 13.2598 17.6807 13.2598 19.7708V22.2411C13.2598 24.3312 14.0249 26.2566 15.4141 27.6631C16.8363 29.1032 18.8237 29.8966 21.0094 29.8966H22.8125C25.8363 29.8966 27.4976 28.4243 28.8319 27.2413C30.2156 26.0144 31.4112 24.9552 34.5957 24.9552C35.0815 24.9551 35.5665 24.9939 36.0461 25.0712C36.3217 24.3842 36.5263 23.6707 36.6568 22.942C36.6568 22.9302 36.6615 22.9177 36.663 22.9051C35.9812 22.7788 35.2892 22.7155 34.5957 22.7162C27.2788 22.7162 27.6591 27.6552 22.8125 27.6552H21.0094C17.6837 27.6552 15.498 25.2798 15.498 22.2387V19.7716C15.498 16.7305 17.6837 14.3551 21.0094 14.3551H22.8125C27.6591 14.3551 27.2812 19.2941 34.5957 19.2941C35.2892 19.2948 35.9813 19.2313 36.663 19.1044C36.663 19.0934 36.663 19.0817 36.6576 19.0699C36.5264 18.3413 36.3215 17.6278 36.0461 16.9406Z" fill="#0AE9EF"/>
</g>
<defs>
<clipPath id="clip0_111_44609">
<rect width="41.2215" height="42" fill="white" transform="translate(0.573242)"/>
</clipPath>
</defs>
</svg>
