<svg width="43" height="42" viewBox="0 0 43 42" fill="none" xmlns="http://www.w3.org/2000/svg">
<g clip-path="url(#clip0_111_44608)">
<path fill-rule="evenodd" clip-rule="evenodd" d="M14.0382 25.032C15.1582 25.032 17.3982 24.976 20.5342 23.688C24.1741 22.176 31.3422 19.488 36.5502 16.688C40.1902 14.728 41.7582 12.152 41.7582 8.68C41.7582 3.92 37.8942 0 33.0781 0H12.9181C6.03017 0 0.430176 5.6 0.430176 12.488C0.430176 19.376 5.69417 25.032 14.0382 25.032Z" fill="white"/>
<path fill-rule="evenodd" clip-rule="evenodd" d="M17.4556 33.6017C17.4556 30.2417 19.4716 27.1618 22.6075 25.8737L28.9355 23.2418C35.3755 20.6098 42.4315 25.3138 42.4315 32.2577C42.4315 37.6337 38.0635 42.0017 32.6875 42.0017H25.7995C21.2075 42.0017 17.4556 38.2498 17.4556 33.6017Z" fill="white"/>
<path d="M7.65418 26.6562C3.67817 26.6562 0.430176 29.9043 0.430176 33.8803V34.8323C0.430176 38.7523 3.67817 42.0003 7.65418 42.0003C11.6302 42.0003 14.8782 38.7522 14.8782 34.7763V33.8243C14.8222 29.9043 11.6302 26.6562 7.65418 26.6562Z" fill="white"/>
</g>
<defs>
<clipPath id="clip0_111_44608">
<rect width="42" height="42" fill="white" transform="translate(0.430176)"/>
</clipPath>
</defs>
</svg>
