<svg width="43" height="42" viewBox="0 0 43 42" fill="none" xmlns="http://www.w3.org/2000/svg">
<path fill-rule="evenodd" clip-rule="evenodd" d="M4.54688 37.8902L6.90412 29.2846C5.44752 26.7601 4.68242 23.8962 4.686 20.9817C4.69037 11.8248 12.1419 4.37505 21.2996 4.37505C23.4831 4.36952 25.646 4.79711 27.6631 5.63309C29.6802 6.46907 31.5115 7.69683 33.0509 9.2453C34.5976 10.7852 35.8236 12.6165 36.658 14.6333C37.4925 16.6501 37.9188 18.8122 37.9124 20.9948C37.9089 30.1517 30.4556 37.6023 21.2996 37.6023H21.2926C18.5191 37.601 15.7899 36.9059 13.3537 35.5802L4.54688 37.8902Z" fill="white"/>
<path fill-rule="evenodd" clip-rule="evenodd" d="M4.54641 38.3277C4.47922 38.3276 4.41295 38.3121 4.35274 38.2822C4.29252 38.2524 4.23999 38.2091 4.1992 38.1557C4.15842 38.1024 4.13048 38.0403 4.11755 37.9743C4.10462 37.9084 4.10705 37.8404 4.12466 37.7755L6.43378 29.344C5.00001 26.7906 4.24758 23.911 4.24891 20.9825C4.25241 11.5833 11.9008 3.93755 21.2992 3.93755C23.5402 3.93203 25.7601 4.37099 27.8303 5.22904C29.9006 6.0871 31.7801 7.3472 33.3602 8.93643C34.9477 10.5167 36.2061 12.3961 37.0625 14.4659C37.9189 16.5357 38.3563 18.7548 38.3494 20.9948C38.3459 30.3932 30.6967 38.0398 21.2992 38.0398C18.5096 38.0383 15.7627 37.3543 13.2982 36.0474L4.65753 38.3128C4.62128 38.3225 4.58393 38.3275 4.54641 38.3277Z" fill="white"/>
<path fill-rule="evenodd" clip-rule="evenodd" d="M21.2993 4.37505C23.4828 4.36952 25.6457 4.79711 27.6628 5.63309C29.6799 6.46907 31.5111 7.69683 33.0506 9.2453C34.5972 10.7852 35.8233 12.6165 36.6577 14.6333C37.4922 16.6501 37.9185 18.8122 37.9121 20.9948C37.9086 30.1517 30.4553 37.6023 21.2993 37.6023H21.2923C18.5188 37.601 15.7896 36.9059 13.3534 35.5802L4.54655 37.8902L6.9038 29.2845C5.4472 26.7601 4.6821 23.8962 4.68568 20.9817C4.69005 11.8248 12.1416 4.37505 21.2993 4.37505ZM21.2993 3.50005C11.6603 3.50005 3.81505 11.3418 3.81068 20.9817C3.80915 23.9245 4.54978 26.8202 5.96405 29.4009L3.70218 37.6601C3.66106 37.8083 3.65984 37.9648 3.69864 38.1137C3.73745 38.2626 3.8149 38.3986 3.92316 38.5079C4.03142 38.6172 4.16665 38.696 4.31515 38.7363C4.46364 38.7765 4.62015 38.7768 4.7688 38.7372L13.2449 36.5147C15.7316 37.8037 18.4914 38.4771 21.2923 38.4782C30.9383 38.4782 38.7836 30.6356 38.7879 20.9957C38.795 18.6982 38.3463 16.4221 37.468 14.2992C36.5897 12.1762 35.2991 10.2485 33.6709 8.62755C32.0501 6.99746 30.1222 5.70496 27.9986 4.82483C25.875 3.9447 23.598 3.49443 21.2993 3.50005Z" fill="#CFD8DC"/>
<path fill-rule="evenodd" clip-rule="evenodd" d="M31.0648 11.2285C29.7862 9.9415 28.265 8.92104 26.5892 8.22622C24.9135 7.53141 23.1165 7.17604 21.3024 7.18071C13.6864 7.18071 7.49228 13.3722 7.48878 20.983C7.4853 23.582 8.21729 26.1289 9.60016 28.3295L9.92916 28.8518L8.53353 33.9452L13.7599 32.575L14.2648 32.8742C16.3924 34.1345 18.8199 34.7991 21.2928 34.7983H21.298C28.9088 34.7983 35.1029 28.606 35.1055 20.9943C35.1111 19.1802 34.7568 17.383 34.0632 15.7067C33.3697 14.0304 32.3505 12.5083 31.0648 11.2285Z" fill="#40C351"/>
<path fill-rule="evenodd" clip-rule="evenodd" d="M17.1466 14.0382C16.8359 13.3469 16.5087 13.3329 16.2121 13.3207C15.9697 13.3102 15.6932 13.3111 15.4167 13.3111C15.1402 13.3111 14.6904 13.4152 14.3098 13.8308C13.9292 14.2464 12.8564 15.2501 12.8564 17.2923C12.8564 19.3346 14.3439 21.3086 14.5513 21.5851C14.7587 21.8616 17.4231 26.1867 21.6423 27.8509C25.1484 29.2334 25.8624 28.9587 26.6237 28.8896C27.3849 28.8204 29.0798 27.8859 29.4254 26.9164C29.7711 25.9469 29.7711 25.1166 29.6678 24.9433C29.5637 24.7701 29.2872 24.6668 28.8724 24.4586C28.4577 24.2503 26.4163 23.2467 26.0357 23.1084C25.6551 22.9702 25.3786 22.9011 25.1012 23.3167C24.8247 23.7314 24.0293 24.6668 23.7869 24.9433C23.5446 25.2198 23.3022 25.2557 22.8874 25.0474C22.4727 24.8392 21.1357 24.4017 19.5493 22.9877C18.3156 21.8878 17.4826 20.5289 17.2402 20.1133C16.9978 19.6986 17.2139 19.4737 17.4222 19.2663C17.6086 19.0799 17.8369 18.7816 18.0452 18.5392C18.2526 18.2968 18.3217 18.1236 18.4599 17.8471C18.5982 17.5706 18.5291 17.3273 18.4249 17.1199C18.3226 16.9117 17.5158 14.8589 17.1466 14.0382Z" fill="white"/>
</svg>
