<svg width="42" height="42" viewBox="0 0 42 42" fill="none" xmlns="http://www.w3.org/2000/svg">
<g clip-path="url(#clip0_111_44605)">
<path fill-rule="evenodd" clip-rule="evenodd" d="M11.6006 26.3038C11.6006 23.8718 13.4401 21.9126 15.7254 21.9126C18.0106 21.9126 19.8501 23.8718 19.8501 26.3038V37.1131C19.8501 39.5457 18.0106 41.5049 15.7254 41.5049C13.4401 41.5049 11.6006 39.5457 11.6006 37.1137V26.3038Z" fill="#E01E5A" stroke="#E01E5A" stroke-width="0.515631" stroke-linecap="round" stroke-linejoin="round"/>
<path fill-rule="evenodd" clip-rule="evenodd" d="M26.3038 30.1621C23.8718 30.1621 21.9126 28.3226 21.9126 26.0374C21.9126 23.7521 23.8718 21.9126 26.3038 21.9126H37.1137C39.5457 21.9126 41.5049 23.7521 41.5049 26.0374C41.5049 28.3226 39.5457 30.1621 37.1137 30.1621H26.3038Z" fill="#ECB22D" stroke="#ECB22D" stroke-width="0.515631" stroke-linecap="round" stroke-linejoin="round"/>
<path fill-rule="evenodd" clip-rule="evenodd" d="M21.9126 4.64903C21.9126 2.21704 23.7521 0.257812 26.0374 0.257812C28.3226 0.257812 30.1621 2.21704 30.1621 4.64903V15.4589C30.1621 17.8909 28.3226 19.8501 26.0374 19.8501C23.7521 19.8501 21.9126 17.8909 21.9126 15.4589V4.64903Z" fill="#2FB67C" stroke="#2FB67C" stroke-width="0.515631" stroke-linecap="round" stroke-linejoin="round"/>
<path fill-rule="evenodd" clip-rule="evenodd" d="M4.64903 19.8511C2.21704 19.8511 0.257812 18.0113 0.257812 15.7263C0.257812 13.4414 2.21704 11.6016 4.64903 11.6016H15.4589C17.8909 11.6016 19.8501 13.4411 19.8501 15.7263C19.8501 18.0116 17.8909 19.8511 15.4589 19.8511H4.64903Z" fill="#36C5F1" stroke="#36C5F1" stroke-width="0.515631" stroke-linecap="round" stroke-linejoin="round"/>
<path fill-rule="evenodd" clip-rule="evenodd" d="M21.9126 37.3806C21.9126 39.6659 23.7521 41.5054 26.0374 41.5054C28.3226 41.5054 30.1621 39.6659 30.1621 37.3806C30.1621 35.0954 28.3226 33.2559 26.0374 33.2559H21.9126V37.3806Z" fill="#ECB22D" stroke="#ECB22D" stroke-width="0.515631" stroke-linecap="round"/>
<path fill-rule="evenodd" clip-rule="evenodd" d="M37.3806 19.8511H33.2559V15.7263C33.2559 13.4414 35.0954 11.6016 37.3806 11.6016C39.6659 11.6016 41.5054 13.4411 41.5054 15.7263C41.5054 18.0116 39.6659 19.8511 37.3806 19.8511Z" fill="#2FB67C" stroke="#2FB67C" stroke-width="0.515631" stroke-linecap="round"/>
<path fill-rule="evenodd" clip-rule="evenodd" d="M4.38258 21.9126H8.50735V26.0374C8.50735 28.3224 6.66784 30.1621 4.38258 30.1621C2.09732 30.1621 0.257812 28.3224 0.257812 26.0374C0.257812 23.7524 2.09732 21.9126 4.38258 21.9126Z" fill="#E01E5A" stroke="#E01E5A" stroke-width="0.515631" stroke-linecap="round"/>
<path fill-rule="evenodd" clip-rule="evenodd" d="M19.8501 4.38258V8.50735H15.7254C13.4404 8.50735 11.6006 6.66784 11.6006 4.38258C11.6006 2.09732 13.4401 0.257812 15.7254 0.257812C18.0106 0.257812 19.8501 2.09732 19.8501 4.38258Z" fill="#36C5F1" stroke="#36C5F1" stroke-width="0.515631" stroke-linecap="round"/>
</g>
<defs>
<clipPath id="clip0_111_44605">
<rect width="42" height="42" fill="white"/>
</clipPath>
</defs>
</svg>
