<svg width="43" height="42" viewBox="0 0 43 42" fill="none" xmlns="http://www.w3.org/2000/svg">
<g clip-path="url(#clip0_111_44617)">
<path d="M21.5331 0.637695C10.2694 0.637695 1.16943 9.76124 1.16943 21.0013C1.16943 32.265 10.293 41.365 21.5331 41.365C32.7967 41.365 41.8967 32.2414 41.8967 21.0013C41.8967 9.76124 32.7732 0.637695 21.5331 0.637695ZM30.8749 30.0275C30.5103 30.6359 29.7313 30.8058 29.123 30.4411C24.3299 27.5215 18.3207 26.8648 11.2157 28.4703C10.5348 28.6167 9.85389 28.2031 9.70752 27.5158C9.56116 26.8285 9.9748 26.154 10.6621 26.0076C18.4232 24.2258 25.0884 24.9856 30.4415 28.2705C30.5857 28.3564 30.7115 28.47 30.8116 28.6047C30.9118 28.7394 30.9843 28.8925 31.0249 29.0554C31.0656 29.2182 31.0737 29.3875 31.0487 29.5534C31.0237 29.7194 30.9662 29.8788 30.8793 30.0224L30.8749 30.0275ZM33.3567 24.4803C32.8947 25.2344 31.9211 25.454 31.1676 25.0149C25.6936 21.6574 17.3483 20.6844 10.8772 22.6304C10.0257 22.8735 9.15007 22.4115 8.90634 21.5842C8.66325 20.7328 9.12525 19.8571 9.97671 19.6134C17.3725 17.3753 26.5693 18.4457 32.8705 22.3141C33.6004 22.752 33.8251 23.725 33.3573 24.4797L33.3567 24.4803ZM33.5756 18.6894C27.0064 14.7968 16.18 14.4258 9.90289 16.3298C8.90507 16.6461 7.83471 16.0625 7.51843 15.0647C7.20216 14.0669 7.78571 12.9965 8.78352 12.6802C15.9853 10.4911 27.9553 10.9283 35.4981 15.4051C36.3985 15.9397 36.69 17.1081 36.1548 18.0142C35.668 18.9389 34.4761 19.231 33.5756 18.6951V18.6894Z" fill="#1ED760"/>
</g>
<defs>
<clipPath id="clip0_111_44617">
<rect width="42" height="41.3636" fill="white" transform="translate(0.851074 0.318359)"/>
</clipPath>
</defs>
</svg>
