<svg width="43" height="42" viewBox="0 0 43 42" fill="none" xmlns="http://www.w3.org/2000/svg">
<g clip-path="url(#clip0_111_44616)">
<path d="M21.6793 0.321289C10.2966 0.321289 1.03271 9.5852 1.03271 20.9678C1.03271 32.3505 10.2966 41.6144 21.6793 41.6144C33.1227 41.6751 42.3866 32.4112 42.3866 20.9678C42.3866 9.52446 33.1227 0.321289 21.6793 0.321289ZM21.6793 36.2261C13.3239 36.2261 6.48173 29.384 6.48173 20.9678C6.48173 12.6124 13.3239 5.7703 21.6793 5.7703C30.0954 5.7703 36.9375 12.6124 36.9375 20.9678C36.9375 29.384 30.0954 36.2261 21.6793 36.2261Z" fill="#E31E26"/>
<path fill-rule="evenodd" clip-rule="evenodd" d="M22.5273 15.8218C22.5273 14.6817 22.9803 13.5883 23.7865 12.7821C24.5926 11.9759 25.6861 11.5229 26.8262 11.5229C27.9663 11.5229 29.0598 11.9759 29.866 12.7821C30.6722 13.5883 31.1251 14.6817 31.1251 15.8218C31.1251 16.9619 30.6722 18.0554 29.866 18.8616C29.0598 19.6678 27.9663 20.1207 26.8262 20.1207C25.6861 20.1207 24.5926 19.6678 23.7865 18.8616C22.9803 18.0554 22.5273 16.9619 22.5273 15.8218Z" fill="#E31E26"/>
<path fill-rule="evenodd" clip-rule="evenodd" d="M22.5273 26.1148C22.5273 24.9747 22.9803 23.8812 23.7865 23.075C24.5926 22.2688 25.6861 21.8159 26.8262 21.8159C27.9663 21.8159 29.0598 22.2688 29.866 23.075C30.6722 23.8812 31.1251 24.9747 31.1251 26.1148C31.1251 27.2549 30.6722 28.3483 29.866 29.1545C29.0598 29.9607 27.9663 30.4136 26.8262 30.4136C25.6861 30.4136 24.5926 29.9607 23.7865 29.1545C22.9803 28.3483 22.5273 27.2549 22.5273 26.1148Z" fill="#E31E26"/>
<path d="M12.2344 26.1151C12.2333 25.5502 12.3437 24.9907 12.5594 24.4686C12.775 23.9466 13.0916 23.4722 13.491 23.0728C13.8904 22.6734 14.3648 22.3568 14.8868 22.1412C15.4089 21.9255 15.9684 21.8151 16.5332 21.8162C17.6734 21.8162 18.7668 22.2691 19.573 23.0753C20.3792 23.8815 20.8321 24.9749 20.8321 26.1151C20.8321 27.2552 20.3792 28.3486 19.573 29.1548C18.7668 29.961 17.6734 30.4139 16.5332 30.4139C15.9684 30.415 15.4089 30.3046 14.8868 30.0889C14.3648 29.8733 13.8904 29.5567 13.491 29.1573C13.0916 28.7579 12.775 28.2835 12.5594 27.7615C12.3437 27.2394 12.2333 26.6799 12.2344 26.1151ZM12.2344 15.8218C12.2333 15.257 12.3437 14.6975 12.5594 14.1754C12.775 13.6533 13.0916 13.179 13.491 12.7796C13.8904 12.3802 14.3648 12.0636 14.8868 11.8479C15.4089 11.6323 15.9684 11.5219 16.5332 11.523C17.0981 11.5219 17.6576 11.6323 18.1797 11.8479C18.7017 12.0636 19.1761 12.3802 19.5755 12.7796C19.9749 13.179 20.2915 13.6533 20.5071 14.1754C20.7228 14.6975 20.8332 15.257 20.8321 15.8218C20.8332 16.3867 20.7228 16.9462 20.5071 17.4682C20.2915 17.9903 19.9749 18.4646 19.5755 18.864C19.1761 19.2634 18.7017 19.5801 18.1797 19.7957C17.6576 20.0114 17.0981 20.1218 16.5332 20.1207C15.9684 20.1218 15.4089 20.0114 14.8868 19.7957C14.3648 19.5801 13.8904 19.2634 13.491 18.864C13.0916 18.4646 12.775 17.9903 12.5594 17.4682C12.3437 16.9462 12.2333 16.3867 12.2344 15.8218Z" fill="#E31E26"/>
</g>
<defs>
<clipPath id="clip0_111_44616">
<rect width="42" height="42" fill="white" transform="translate(0.70752)"/>
</clipPath>
</defs>
</svg>
