<svg width="43" height="38" viewBox="0 0 43 38" fill="none" xmlns="http://www.w3.org/2000/svg">
<g clip-path="url(#clip0_111_44615)">
<path d="M37.9685 9.84863H4.13011C3.3261 9.84863 2.67432 10.5004 2.67432 11.3044V35.8721C2.67432 36.6761 3.3261 37.3278 4.13011 37.3278H37.9685C38.7725 37.3278 39.4243 36.6761 39.4243 35.8721V11.3044C39.4243 10.5004 38.7725 9.84863 37.9685 9.84863Z" fill="#4989F5"/>
<path d="M37.5438 9.64209H4.51417C3.49101 9.64209 2.69482 17.5605 2.69482 18.5837L20.7829 37.3277H37.5438C38.5701 37.3249 39.4014 36.4937 39.4042 35.4674V11.5021C39.4011 10.4759 38.5699 9.64489 37.5438 9.64209Z" fill="url(#paint0_linear_111_44615)"/>
<path d="M11.0654 14.4505H21.5654V0.669434H12.6377L11.0654 14.4505Z" fill="#3C4BA6"/>
<path d="M32.0654 14.4505H21.5654V0.669434H30.4932L32.0654 14.4505ZM39.4241 3.2818L39.4371 3.32878C39.434 3.3122 39.4277 3.2968 39.4241 3.2818Z" fill="#7BABF7"/>
<path d="M39.4371 3.32829L39.4241 3.28131C39.0912 1.75696 37.742 0.669932 36.1817 0.668945H30.4932L32.0642 14.4504H42.5642L39.4371 3.32829Z" fill="#3F51B5"/>
<path d="M3.70687 3.28174L3.69385 3.32871C3.69701 3.31213 3.70332 3.29674 3.70687 3.28174Z" fill="#7BABF7"/>
<path d="M3.69353 3.32829L3.70656 3.28131C4.03944 1.75696 5.38865 0.669932 6.94893 0.668945H12.6379L11.0645 14.4504H0.564453L3.69353 3.32829Z" fill="#7BABF7"/>
<path fill-rule="evenodd" clip-rule="evenodd" d="M11.0834 14.4487C11.0834 17.3466 8.73424 19.6958 5.83639 19.6958C2.93855 19.6958 0.589355 17.3466 0.589355 14.4487H11.0834Z" fill="#709BE0"/>
<path fill-rule="evenodd" clip-rule="evenodd" d="M21.5776 14.4487C21.5776 17.3466 19.2284 19.6958 16.3305 19.6958C13.4327 19.6958 11.0835 17.3466 11.0835 14.4487H21.5776Z" fill="#3C4BA6"/>
<path fill-rule="evenodd" clip-rule="evenodd" d="M32.0717 14.4487C32.0717 17.3466 29.7225 19.6958 26.8247 19.6958C23.9268 19.6958 21.5776 17.3466 21.5776 14.4487H32.0717Z" fill="#709BE0"/>
<path fill-rule="evenodd" clip-rule="evenodd" d="M42.5644 14.4487C42.5644 17.3466 40.2152 19.6958 37.3174 19.6958C34.4195 19.6958 32.0703 17.3466 32.0703 14.4487H42.5644Z" fill="#3C4BA6"/>
<path d="M37.3176 28.6643C37.299 28.4144 37.2682 28.1862 37.2244 27.8949H31.5007C31.5007 28.6955 31.5007 29.569 31.4976 30.3699H34.8134C34.7429 30.7432 34.5994 31.0989 34.3911 31.4165C34.1828 31.7341 33.9138 32.0075 33.5995 32.2209C33.5995 32.2209 33.5995 32.207 33.5972 32.2066C33.1913 32.4731 32.7341 32.6516 32.2551 32.7305C31.7748 32.8183 31.2823 32.8162 30.8028 32.7241C30.3159 32.6234 29.8549 32.4236 29.4485 32.1372C28.8486 31.7117 28.3858 31.1205 28.117 30.4359C28.0965 30.3826 28.0776 30.3289 28.0582 30.2744V30.2685L28.0634 30.2645C27.8025 29.4989 27.8018 28.6685 28.0614 27.9024C28.2442 27.365 28.5452 26.8754 28.942 26.4695C29.8731 25.5064 31.2642 25.1442 32.5468 25.5308C33.0386 25.6817 33.4879 25.9462 33.8585 26.303L34.9772 25.1843C35.1745 24.9849 35.3794 24.7919 35.5693 24.5859C35.002 24.0568 34.3362 23.6444 33.6098 23.3724C32.2878 22.8931 30.8415 22.8804 29.5113 23.3365C29.465 23.3523 29.4189 23.3688 29.3731 23.3859C27.938 23.9254 26.7573 24.9835 26.0644 26.3511C25.8197 26.8352 25.6415 27.3501 25.5347 27.8819C24.901 31.0308 26.8224 34.1304 29.9245 34.9635C30.9386 35.2351 32.0166 35.2284 33.0386 34.9962C33.9672 34.7866 34.8257 34.3404 35.531 33.7011C36.2668 33.0241 36.7942 32.1222 37.0705 31.1641C37.3015 30.3523 37.3852 29.5056 37.3176 28.6643Z" fill="white"/>
</g>
<defs>
<linearGradient id="paint0_linear_111_44615" x1="2.69482" y1="12865.1" x2="39061" y2="12865.1" gradientUnits="userSpaceOnUse">
<stop offset="0.03" stop-color="#4079D8"/>
<stop offset="1" stop-color="#4989F5"/>
</linearGradient>
<clipPath id="clip0_111_44615">
<rect width="42" height="36.708" fill="white" transform="translate(0.564453 0.645996)"/>
</clipPath>
</defs>
</svg>
