<svg width="38" height="42" viewBox="0 0 38 42" fill="none" xmlns="http://www.w3.org/2000/svg">
<g clip-path="url(#clip0_111_44614)">
<path d="M32.1751 8.26663C32.161 8.17884 32.118 8.09825 32.0531 8.03754C31.9881 7.97683 31.9048 7.93945 31.8162 7.93127C31.6731 7.90772 28.5262 7.69199 28.5262 7.69199L26.1271 5.2929C25.9108 5.05363 25.4322 5.12363 25.2515 5.17327C25.228 5.17327 24.773 5.31645 24.0284 5.55827C23.3049 3.45827 22.0239 1.54536 19.7673 1.54536H19.5745C18.928 0.707266 18.1363 0.322266 17.4681 0.322266C12.2143 0.345811 9.70451 6.89781 8.91924 10.2457L5.24742 11.3721C4.12105 11.731 4.07969 11.7571 3.92824 12.8313L0.831055 36.7064L24.038 41.0495L36.6144 38.3386C36.6144 38.3151 32.1981 8.49445 32.1751 8.26663ZM22.7417 5.96045C22.1581 6.15327 21.4925 6.34545 20.769 6.56181V6.12908C20.7906 5.04925 20.6288 3.97359 20.2904 2.9479C21.4664 3.12863 22.2631 4.44781 22.736 5.95981L22.7417 5.96045ZM18.8802 3.22536C19.264 4.35681 19.4421 5.54808 19.4059 6.74254V6.9589L15.3491 8.20808C16.1432 5.24263 17.6075 3.77772 18.8802 3.22536ZM17.3211 1.76617C17.5611 1.77128 17.7945 1.84625 17.9925 1.9819C16.2998 2.76972 14.5103 4.76027 13.7429 8.74454L10.5324 9.72836C11.438 6.70499 13.5507 1.76045 17.3192 1.76045L17.3211 1.76617Z" fill="#95BF47"/>
<path d="M31.8167 7.93096C31.6736 7.90741 28.5267 7.69169 28.5267 7.69169L26.1277 5.2926C26.0392 5.20236 25.9186 5.15087 25.7923 5.14941L24.041 41.0492L36.6175 38.3383L32.1757 8.29051C32.1612 8.20051 32.1188 8.11735 32.0543 8.0529C31.9899 7.98845 31.9067 7.946 31.8167 7.9316V7.93096Z" fill="#5E8E3E"/>
<path d="M19.7686 14.8941L18.207 19.5027C17.263 19.0466 16.2313 18.8007 15.183 18.7817C12.7343 18.7817 12.6146 20.3166 12.6146 20.7022C12.6146 22.8009 18.1103 23.6066 18.1103 28.5505C18.1103 32.4323 15.638 34.9332 12.3194 34.9332C8.33574 34.9332 6.29492 32.4609 6.29492 32.4609L7.35447 28.9291C7.35447 28.9291 9.44174 30.73 11.2191 30.73C11.4316 30.7381 11.6435 30.703 11.842 30.6269C12.0405 30.5507 12.2215 30.4351 12.374 30.2869C12.5266 30.1388 12.6475 29.9613 12.7294 29.7651C12.8113 29.5689 12.8526 29.3581 12.8507 29.1455C12.8507 26.3837 8.33256 26.2647 8.33256 21.7522C8.33256 17.9582 11.0677 14.2622 16.5633 14.2622C18.7231 14.294 19.7566 14.8986 19.7566 14.8986L19.7686 14.8941Z" fill="white"/>
</g>
<defs>
<clipPath id="clip0_111_44614">
<rect width="36.9091" height="42" fill="white" transform="translate(0.511719)"/>
</clipPath>
</defs>
</svg>
