<svg width="43" height="42" viewBox="0 0 43 42" fill="none" xmlns="http://www.w3.org/2000/svg">
<g clip-path="url(#clip0_111_44613)">
<path fill-rule="evenodd" clip-rule="evenodd" d="M21.386 0C9.76396 0 0.368652 9.46458 0.368652 21.1736C0.368652 30.5332 6.38856 38.4558 14.7398 41.26C15.7839 41.4708 16.1663 40.8044 16.1663 40.2438C16.1663 39.7529 16.1319 38.0704 16.1319 36.3173C10.2854 37.5795 9.06788 33.7933 9.06788 33.7933C8.12831 31.3394 6.73616 30.7086 6.73616 30.7086C4.8226 29.4116 6.87555 29.4116 6.87555 29.4116C8.99819 29.5518 10.112 31.5851 10.112 31.5851C11.9907 34.8098 15.018 33.8986 16.236 33.3377C16.4098 31.9705 16.9669 31.024 17.5585 30.4983C12.8955 30.0074 7.98935 28.1846 7.98935 20.0515C7.98935 17.7379 8.82396 15.845 10.1464 14.3728C9.93776 13.8471 9.20684 11.6733 10.3555 8.76376C10.3555 8.76376 12.1301 8.20278 16.1315 10.9372C17.8446 10.4737 19.6113 10.2379 21.386 10.2359C23.1607 10.2359 24.9696 10.4816 26.6402 10.9372C30.6419 8.20278 32.4165 8.76376 32.4165 8.76376C33.5652 11.6733 32.8338 13.8471 32.6252 14.3728C33.9825 15.845 34.7827 17.7379 34.7827 20.0515C34.7827 28.1846 29.8766 29.9721 25.1788 30.4983C25.9446 31.1642 26.6053 32.4261 26.6053 34.4244C26.6053 37.2638 26.5709 39.5426 26.5709 40.2434C26.5709 40.8044 26.9538 41.4708 27.9975 41.2604C36.3487 38.4554 42.3685 30.5332 42.3685 21.1736C42.403 9.46458 32.9733 0 21.386 0Z" fill="white"/>
</g>
<defs>
<clipPath id="clip0_111_44613">
<rect width="42" height="42" fill="white" transform="translate(0.368652)"/>
</clipPath>
</defs>
</svg>
