<svg width="43" height="42" viewBox="0 0 43 42" fill="none" xmlns="http://www.w3.org/2000/svg">
<path d="M25.5805 39.9621H26.0138L33.0873 36.4249L33.205 36.2586V8.02517L33.0873 7.85791L26.0138 4.32373H25.5752L25.5805 39.9621Z" fill="#5294CF"/>
<path d="M16.3758 39.9621H15.9364L8.86901 36.4249L8.72559 36.1783L8.65283 8.16895L8.86901 7.85791L15.9364 4.32373H16.3812L16.3758 39.9621Z" fill="#1F5B98"/>
<path d="M15.9487 4.32373H26.0072V39.9621H15.9487V4.32373Z" fill="#2D72B8"/>
<path d="M36.79 21.3418L36.551 21.2888L33.1381 20.9706L33.0875 20.9958L26.0078 20.7126H15.9488L8.86893 20.9958V15.597L8.86152 15.601L8.86893 15.5852L15.9488 13.9447H26.0078L33.0875 15.5852L35.6901 16.9686V16.0792L36.79 15.9589L36.6761 15.7367L33.1936 13.2465L33.0875 13.281L26.0078 11.0872H15.9488L8.86893 13.281V7.85742L5.1665 12.1949V15.9831L5.19516 15.9623L6.26641 16.0792V16.9869L5.1665 17.5755V21.3447L5.19516 21.3418L6.26641 21.3576V22.9396L5.34216 22.9535L5.1665 22.9367V26.7074L6.26641 27.2989V28.217L5.21258 28.3334L5.1665 28.2988V32.0864L8.86893 36.4245V31.0014L15.9488 33.1952H26.0078L33.1084 30.995L33.2027 31.0364L36.6395 28.5828L36.79 28.3384L35.6901 28.217V27.3173L35.546 27.2597L33.1936 28.5277L33.1084 28.7056L26.0078 30.3366V30.3385H15.9488V30.3366L8.86893 28.6987V23.2802L15.9488 23.5623V23.5693H26.0078L33.0875 23.2802L33.2487 23.3543L36.5567 23.0695L36.79 22.9554L35.6901 22.9396V21.3576L36.79 21.3418Z" fill="#1A476F"/>
<path d="M33.0874 31.0014V36.4245L36.79 32.0864V28.3235L33.1088 30.995L33.0874 31.0014ZM33.0874 28.7105L33.1088 28.7056L36.79 26.7257V22.9396L33.0874 23.2802V28.7105ZM33.1088 15.5901L33.0874 15.5852V20.9958L36.79 21.3418V17.5576L33.1088 15.5901ZM33.1088 13.3022L36.79 15.9589V12.1959L33.0874 7.85742V13.281L33.1088 13.2884V13.3022Z" fill="#2D72B8"/>
</svg>
