<svg width="43" height="42" viewBox="0 0 43 42" fill="none" xmlns="http://www.w3.org/2000/svg">
<g clip-path="url(#clip0_111_44611)">
<path d="M42.0813 20.9074C42.0997 25.0607 40.886 29.1262 38.5937 32.5898C36.3015 36.0534 33.0337 38.7594 29.2035 40.3658C25.3733 41.9722 21.1528 42.4067 17.0757 41.6144C12.9986 40.8221 9.24793 38.8386 6.29809 35.9147C3.34825 32.9909 1.33168 29.2579 0.503382 25.1879C-0.324913 21.118 0.0722718 16.8938 1.64471 13.0496C3.21715 9.20535 5.89421 5.91373 9.33738 3.59097C12.7805 1.2682 16.8352 0.0186057 20.9885 0.000206082C23.7463 -0.012011 26.4795 0.519081 29.032 1.56316C31.5845 2.60723 33.9064 4.14385 35.865 6.08527C37.8237 8.02668 39.3807 10.3349 40.4473 12.8781C41.514 15.4212 42.0692 18.1496 42.0813 20.9074Z" fill="#8DC63F"/>
<path d="M40.5063 20.9151C40.5252 24.7567 39.4045 28.5176 37.2858 31.7221C35.1671 34.9267 32.1457 37.431 28.6037 38.9182C25.0616 40.4055 21.1581 40.8089 17.3868 40.0775C13.6154 39.3461 10.1457 37.5127 7.41643 34.8092C4.68716 32.1056 2.82093 28.6535 2.05379 24.8892C1.28665 21.125 1.65305 17.2178 3.10666 13.6618C4.56026 10.1059 7.03577 7.06084 10.2201 4.91188C13.4044 2.76292 17.1545 1.60656 20.9961 1.58906C26.1455 1.5664 31.0933 3.58939 34.7518 7.21335C38.4103 10.8373 40.4801 15.7657 40.5063 20.9151Z" fill="#F9E988"/>
<path d="M21.439 2.8396C22.6737 2.62052 23.9372 2.62052 25.1718 2.8396C26.4183 3.03737 27.6232 3.44107 28.7373 4.03417C29.8451 4.64286 30.8023 5.46917 31.7549 6.24373C32.7075 7.0183 33.6555 7.81112 34.5579 8.67851C35.4792 9.53229 36.2831 10.5045 36.9486 11.5698C37.6336 12.6267 38.1953 13.7587 38.6225 14.9435C39.4336 17.3266 39.7151 19.8937 39.3103 22.3422H39.1901C38.7838 19.915 38.2329 17.602 37.364 15.4016C36.9561 14.2955 36.4763 13.2173 35.9275 12.1739C35.3552 11.1248 34.7242 10.1086 34.0375 9.13047C33.3395 8.14511 32.484 7.28139 31.5053 6.57395C30.5192 5.87091 29.3855 5.41591 28.2884 4.98373C27.1912 4.55156 26.1032 4.10873 24.9588 3.78004C23.8145 3.45134 22.6518 3.20482 21.4375 2.96591L21.439 2.8396Z" fill="white"/>
<path d="M30.933 14.0598C29.5239 13.6519 28.063 13.0737 26.5839 12.4893C26.4987 12.118 26.17 11.6554 25.505 11.0908C24.5387 10.2524 22.7232 10.2737 21.1543 10.645C19.4226 10.2371 17.7122 10.0926 16.0702 10.4928C2.64085 14.1921 10.2556 23.2176 5.3252 32.2902C6.02672 33.7785 13.5882 42.4615 24.5295 40.1317C24.5295 40.1317 20.7876 31.1398 29.2317 26.8241C36.0811 23.3104 41.0298 16.8095 30.933 14.0598Z" fill="#8BC53F"/>
<path d="M32.5916 19.9658C32.5925 20.1268 32.5457 20.2845 32.457 20.4189C32.3682 20.5533 32.2417 20.6583 32.0933 20.7208C31.9449 20.7832 31.7813 20.8003 31.6232 20.7697C31.4651 20.7392 31.3196 20.6625 31.2051 20.5493C31.0906 20.4361 31.0122 20.2914 30.9799 20.1337C30.9476 19.9759 30.9628 19.8122 31.0236 19.663C31.0844 19.5139 31.188 19.3862 31.3214 19.296C31.4548 19.2058 31.6119 19.1572 31.7729 19.1563C31.9887 19.1554 32.1961 19.2402 32.3495 19.3919C32.503 19.5437 32.59 19.75 32.5916 19.9658Z" fill="white"/>
<path d="M21.1548 10.6385C22.1333 10.7085 25.6713 11.8558 26.5844 12.4828C25.8235 10.2763 23.2624 9.98259 21.1548 10.6385Z" fill="#009345"/>
<path d="M22.0855 16.2185C22.0858 16.9613 21.8659 17.6875 21.4534 18.3053C21.041 18.9231 20.4546 19.4047 19.7685 19.6892C19.0824 19.9737 18.3273 20.0484 17.5987 19.9038C16.8701 19.7592 16.2008 19.4018 15.6753 18.8767C15.1499 18.3517 14.7919 17.6827 14.6467 16.9542C14.5015 16.2257 14.5755 15.4706 14.8595 14.7842C15.1435 14.0978 15.6246 13.5111 16.2421 13.0981C16.8595 12.6852 17.5856 12.4647 18.3284 12.4644C19.3239 12.4644 20.2787 12.8596 20.9829 13.5633C21.6872 14.2669 22.0832 15.2214 22.084 16.217L22.0855 16.2185Z" fill="white"/>
<path d="M20.972 16.2526C20.972 16.7751 20.817 17.2858 20.5267 17.7203C20.2365 18.1547 19.8239 18.4933 19.3412 18.6932C18.8585 18.8932 18.3273 18.9455 17.8148 18.8436C17.3024 18.7416 16.8317 18.49 16.4622 18.1206C16.0928 17.7511 15.8412 17.2804 15.7392 16.768C15.6373 16.2555 15.6896 15.7243 15.8896 15.2416C16.0895 14.7589 16.4281 14.3463 16.8625 14.0561C17.297 13.7658 17.8077 13.6108 18.3302 13.6108C19.0308 13.6108 19.7028 13.8892 20.1982 14.3846C20.6936 14.88 20.972 15.5519 20.972 16.2526Z" fill="#58595B"/>
<path d="M35.6342 21.6208C32.5907 23.7649 29.1303 25.3917 24.2211 25.3917C21.9233 25.3917 21.4576 22.9569 19.939 24.1469C19.1553 24.7647 16.3918 26.1465 14.1989 26.0415C12.0061 25.9365 8.45134 24.6521 7.46069 19.9697C7.06808 24.6521 6.86721 28.0989 5.10352 32.0508C8.60352 37.6554 16.9487 41.9786 24.5239 40.116C23.7159 34.4323 28.6905 28.8658 31.4813 26.0217C32.5466 24.9428 34.5705 23.1821 35.6342 21.6223V21.6208Z" fill="#8BC53F"/>
<path d="M35.5149 21.761C34.5699 22.6223 33.4454 23.26 32.301 23.823C31.1425 24.3723 29.935 24.812 28.6945 25.1363C27.4527 25.4573 26.1578 25.6993 24.846 25.5806C23.5343 25.4619 22.1936 25.016 21.3247 24.033L21.3658 23.9858C22.431 24.6767 23.6606 24.9202 24.8841 24.9552C26.1242 24.9932 27.3647 24.8911 28.5819 24.6508C29.8114 24.3931 31.0143 24.0212 32.1747 23.54C33.3358 23.0606 34.4847 22.5052 35.4738 21.7139L35.5149 21.761Z" fill="#58595B"/>
</g>
<defs>
<clipPath id="clip0_111_44611">
<rect width="42" height="42" fill="white" transform="translate(0.081543)"/>
</clipPath>
</defs>
</svg>
