<svg width="43" height="42" viewBox="0 0 43 42" fill="none" xmlns="http://www.w3.org/2000/svg">
<g clip-path="url(#clip0_111_44610)">
<path d="M6.16762 19.8142L2.09219 20.6066C1.47705 20.7263 1.10296 21.3546 1.29097 21.9524L7.36567 41.2668C7.50324 41.7042 7.90875 42.0017 8.36729 42.0017H13.3207C13.7761 42.0017 14.1796 41.7083 14.3198 41.2749L19.6137 24.912C19.6764 24.7183 19.8567 24.5872 20.0603 24.5872C20.2638 24.5872 20.4441 24.7183 20.5068 24.912L25.8007 41.275C25.9409 41.7083 26.3444 42.0017 26.7997 42.0017H31.6049C32.0526 42.0017 32.451 41.7179 32.5973 41.2948L41.4324 15.7363C41.6681 15.0543 41.1616 14.3433 40.44 14.3433H35.5245C35.0607 14.3433 34.6519 14.6473 34.5187 15.0915L29.7448 31.0043C29.6714 31.2489 29.4464 31.4164 29.1911 31.4164C28.939 31.4164 28.7158 31.253 28.6398 31.0126L23.7068 15.418C23.5687 14.9815 23.1636 14.6847 22.7057 14.6847H17.5781C17.1237 14.6847 16.7209 14.9769 16.5799 15.4088L11.4321 31.1738C11.3849 31.3185 11.25 31.4164 11.0978 31.4164C10.9447 31.4164 10.8092 31.3174 10.7626 31.1715L7.36842 20.526C7.20661 20.0185 6.69047 19.7125 6.16762 19.8142Z" fill="white"/>
<path d="M14.7462 8.33535L15.4952 1.21931C15.5627 0.579009 16.1852 0.149618 16.8076 0.314048L24.0348 2.22311C24.4245 2.32606 24.721 2.64303 24.7975 3.03877L25.4953 6.64438C25.6062 7.21718 25.2288 7.77052 24.6551 7.87645L15.9811 9.47782C15.2911 9.6052 14.6728 9.03308 14.7462 8.33535Z" fill="#E94F2E"/>
</g>
<defs>
<clipPath id="clip0_111_44610">
<rect width="42" height="42" fill="white" transform="translate(0.938477)"/>
</clipPath>
</defs>
</svg>
