<svg width="45" height="40" viewBox="0 0 45 40" fill="none" xmlns="http://www.w3.org/2000/svg">
<rect x="6.5" y="4" width="32" height="32" rx="16" fill="url(#paint0_linear_111_44963)"/>
<g filter="url(#filter0_d_111_44963)">
<path d="M22.499 11.5C21.2054 11.4989 19.9287 11.7936 18.7666 12.3616C17.6044 12.9296 16.5875 13.7558 15.7937 14.7771C16.6592 15.1193 17.4221 15.6785 18.0088 16.401C18.5955 17.1235 18.9863 17.9849 19.1436 18.9022C19.1695 19.0522 19.1895 19.2065 19.203 19.3608C19.2164 19.515 19.2213 19.665 19.2213 19.8193V19.8285C19.2212 19.9432 19.2273 20.058 19.2396 20.1721C19.2445 20.2104 19.2488 20.2487 19.2537 20.2864C19.2537 20.3021 19.258 20.3156 19.2596 20.3307C19.2765 20.4409 19.299 20.5502 19.327 20.6581C19.3331 20.6874 19.3407 20.7164 19.3497 20.745C19.5718 21.5251 20.0685 22.1985 20.7483 22.6409C21.4281 23.0833 22.245 23.2649 23.0482 23.1521C23.8514 23.0393 24.5867 22.6397 25.1183 22.0271C25.6499 21.4146 25.942 20.6304 25.9406 19.8193C25.9407 19.6659 25.9306 19.5128 25.9104 19.3608C25.8895 19.2058 25.8572 19.0525 25.8138 18.9022C25.6407 18.2918 25.2983 17.743 24.8262 17.3191C24.3541 16.8952 23.7716 16.6137 23.1462 16.5071C22.5208 16.4005 21.8779 16.4731 21.2921 16.7167C20.7062 16.9602 20.2013 17.3647 19.8357 17.8832C19.609 17.1779 19.2599 16.518 18.8043 15.9337C19.5118 15.2452 20.3939 14.7631 21.3553 14.5393C22.3168 14.3156 23.3211 14.3587 24.2599 14.6641C25.1986 14.9695 26.0361 15.5256 26.6818 16.2722C27.3276 17.0188 27.7572 17.9277 27.9241 18.9006C27.95 19.0506 27.97 19.2049 27.9835 19.3591C27.997 19.5134 28.0018 19.6634 28.0018 19.8177V19.8268C28.002 20.0104 27.9928 20.1939 27.9743 20.3765C27.9486 20.6297 27.9051 20.8808 27.8443 21.128C27.8076 21.2763 27.765 21.4214 27.7175 21.5649C27.6949 21.6324 27.6706 21.6982 27.6458 21.7634C27.5972 21.8907 27.5433 22.0159 27.4839 22.1378C27.4246 22.2597 27.3631 22.3795 27.2973 22.4971C26.7453 23.4681 25.9068 24.245 24.8966 24.7215C23.8863 25.198 22.7536 25.3509 21.6532 25.1593C20.5527 24.9677 19.5383 24.4409 18.7486 23.651C17.9589 22.8611 17.4323 21.8465 17.241 20.746C17.2151 20.595 17.1952 20.4418 17.1817 20.2875C17.1682 20.1332 17.1617 19.9838 17.1617 19.8295V19.8204C17.1621 19.6664 17.1514 19.5126 17.1299 19.3602C17.1102 19.2057 17.0784 19.0529 17.0349 18.9033C16.8778 18.3515 16.5822 17.849 16.1762 17.4436C15.7702 17.0382 15.2674 16.7433 14.7153 16.5869C13.9801 18.2639 13.806 20.1334 14.2191 21.9173C14.6321 23.7011 15.6101 25.3039 17.0075 26.4871C18.4049 27.6703 20.1471 28.3706 21.9746 28.4837C23.8022 28.5969 25.6174 28.1169 27.1501 27.1152C28.6829 26.1135 29.8511 24.6436 30.4811 22.9244C31.1111 21.2051 31.169 19.3284 30.6463 17.5735C30.1236 15.8187 29.0482 14.2795 27.5802 13.1852C26.1122 12.0908 24.33 11.4998 22.499 11.5ZM19.2213 25.2493H17.1633V23.1115C17.6786 23.9575 18.383 24.6725 19.2213 25.2002V25.2493Z" fill="white"/>
</g>
<defs>
<filter id="filter0_d_111_44963" x="0" y="-2.5" width="45" height="45" filterUnits="userSpaceOnUse" color-interpolation-filters="sRGB">
<feFlood flood-opacity="0" result="BackgroundImageFix"/>
<feColorMatrix in="SourceAlpha" type="matrix" values="0 0 0 0 0 0 0 0 0 0 0 0 0 0 0 0 0 0 127 0" result="hardAlpha"/>
<feOffset/>
<feGaussianBlur stdDeviation="7"/>
<feComposite in2="hardAlpha" operator="out"/>
<feColorMatrix type="matrix" values="0 0 0 0 1 0 0 0 0 1 0 0 0 0 1 0 0 0 0.1 0"/>
<feBlend mode="normal" in2="BackgroundImageFix" result="effect1_dropShadow_111_44963"/>
<feBlend mode="normal" in="SourceGraphic" in2="effect1_dropShadow_111_44963" result="shape"/>
</filter>
<linearGradient id="paint0_linear_111_44963" x1="22.5" y1="4" x2="22.5" y2="36" gradientUnits="userSpaceOnUse">
<stop stop-color="#7E56E2"/>
<stop offset="1" stop-color="#521ED6"/>
</linearGradient>
</defs>
</svg>
