<svg width="33" height="32" viewBox="0 0 33 32" fill="none" xmlns="http://www.w3.org/2000/svg">
<rect x="0.5" width="32" height="32" rx="16" fill="url(#paint0_linear_128_4168)"/>
<rect x="1" y="0.5" width="31" height="31" rx="15.5" stroke="white" stroke-opacity="0.1"/>
<path d="M16.25 23.7143C15.6977 23.7143 15.25 23.2666 15.25 22.7143V18.3346C15.25 18.0742 15.3515 17.8241 15.533 17.6375L19.5723 13.4828C19.9496 13.0947 19.9496 12.4768 19.5723 12.0886L15.342 7.73748C14.9493 7.33358 14.3007 7.33359 13.908 7.73748L9.67771 12.0886C9.30037 12.4768 9.30037 13.0947 9.67772 13.4828L13.717 17.6375C13.8985 17.8241 14 18.0742 14 18.3346V23.7143C14 24.0553 14.1317 24.3823 14.3661 24.6234C14.6005 24.8645 14.9185 25 15.25 25H23.3571C23.7122 25 24 24.7122 24 24.3571C24 24.0021 23.7122 23.7143 23.3571 23.7143H16.25ZM13.908 9.55548C14.3007 9.15158 14.9493 9.15159 15.342 9.55548L17.8048 12.0886C18.1821 12.4768 18.1821 13.0947 17.8048 13.4828L15.342 16.0159C14.9493 16.4198 14.3007 16.4198 13.908 16.0159L11.4452 13.4828C11.0679 13.0947 11.0679 12.4768 11.4452 12.0886L13.908 9.55548Z" fill="white"/>
<defs>
<linearGradient id="paint0_linear_128_4168" x1="16.5" y1="0" x2="16.5" y2="32" gradientUnits="userSpaceOnUse">
<stop stop-color="#7C54E0"/>
<stop offset="1" stop-color="#5320D6"/>
</linearGradient>
</defs>
</svg>
