<svg width="201" height="43" viewBox="0 0 201 43" fill="none" xmlns="http://www.w3.org/2000/svg">
<rect y="0.339844" width="42" height="42" rx="20" fill="url(#paint0_linear_111_44551)"/>
<rect x="0.5" y="0.839844" width="41" height="41" rx="19.5" stroke="white" stroke-opacity="0.1"/>
<path d="M20.998 5.33985C18.5631 5.33773 16.16 5.89247 13.9724 6.96163C11.7848 8.0308 9.87064 9.58608 8.37635 11.5085C10.0056 12.1526 11.4416 13.2053 12.546 14.5653C13.6504 15.9253 14.386 17.5467 14.6821 19.2735C14.7309 19.5557 14.7684 19.8462 14.7938 20.1366C14.8192 20.427 14.8283 20.7093 14.8283 20.9997V21.0169C14.8281 21.233 14.8396 21.4489 14.8629 21.6638C14.872 21.7359 14.8801 21.808 14.8893 21.879C14.8893 21.9085 14.8974 21.9339 14.9004 21.9623C14.9322 22.1698 14.9745 22.3755 15.0274 22.5787C15.0388 22.6338 15.0531 22.6884 15.07 22.7421C15.488 24.2105 16.4232 25.4782 17.7028 26.311C18.9824 27.1438 20.52 27.4856 22.032 27.2732C23.5439 27.0609 24.9279 26.3087 25.9286 25.1557C26.9293 24.0026 27.4791 22.5264 27.4764 20.9997C27.4766 20.711 27.4576 20.4227 27.4196 20.1366C27.3802 19.8448 27.3195 19.5563 27.2378 19.2735C26.9119 18.1245 26.2674 17.0913 25.3787 16.2934C24.4901 15.4955 23.3937 14.9656 22.2164 14.7649C21.0391 14.5642 19.829 14.701 18.7262 15.1595C17.6234 15.6179 16.673 16.3792 15.9849 17.3553C15.5581 16.0276 14.9009 14.7854 14.0434 13.6856C15.3751 12.3896 17.0355 11.4821 18.8453 11.0609C20.6551 10.6398 22.5456 10.721 24.3127 11.2959C26.0797 11.8707 27.6561 12.9174 28.8717 14.3228C30.0873 15.7282 30.8959 17.439 31.2101 19.2704C31.2589 19.5527 31.2964 19.8431 31.3218 20.1335C31.3472 20.4239 31.3563 20.7062 31.3563 20.9966V21.0139C31.3567 21.3595 31.3395 21.7048 31.3046 22.0486C31.2561 22.5252 31.1743 22.9979 31.0598 23.4631C30.9908 23.7423 30.9106 24.0155 30.8212 24.2856C30.7786 24.4125 30.7329 24.5364 30.6862 24.6593C30.5948 24.8989 30.4932 25.1345 30.3815 25.364C30.2698 25.5934 30.1541 25.8189 30.0302 26.0402C28.9911 27.8681 27.4128 29.3304 25.5112 30.2273C23.6096 31.1243 21.4773 31.4121 19.4059 31.0514C17.3345 30.6908 15.4251 29.6992 13.9385 28.2123C12.452 26.7254 11.4609 24.8156 11.1007 22.7442C11.052 22.4599 11.0144 22.1715 10.989 21.8811C10.9636 21.5907 10.9515 21.3094 10.9515 21.019V21.0017C10.9521 20.7119 10.9321 20.4225 10.8915 20.1356C10.8544 19.8447 10.7947 19.5571 10.7128 19.2755C10.417 18.2368 9.86061 17.291 9.09641 16.5278C8.33221 15.7647 7.38561 15.2096 6.34652 14.9153C4.96256 18.0719 4.63491 21.591 5.41235 24.9488C6.18979 28.3067 8.03074 31.3237 10.6612 33.5509C13.2916 35.778 16.571 37.0962 20.011 37.3092C23.4511 37.5223 26.868 36.6188 29.7532 34.7332C32.6383 32.8476 34.8375 30.0808 36.0233 26.8445C37.2091 23.6083 37.3181 20.0756 36.3342 16.7724C35.3503 13.4691 33.326 10.5719 30.5627 8.51195C27.7994 6.45199 24.4447 5.33942 20.998 5.33985ZM14.8283 31.2209H10.9545V27.1968C11.9243 28.7893 13.2504 30.1352 14.8283 31.1285V31.2209Z" fill="#F5F6F7"/>
<path d="M140.416 27.6035H140.383C139.606 23.236 137.195 13.99 135.97 9.41504H131.338C129.947 15.1736 127.645 23.4718 126.739 27.8503H126.704C126.425 25.2298 125.407 20.3709 123.173 9.41504H117.674L123.741 33.2572H129.076C130.349 28.453 132.5 20.4321 133.367 16.189H133.402C134.242 20.2748 136.337 27.9813 137.592 33.2572H142.934L149.389 9.41504H144.386C143.55 13.1209 141.211 22.3538 140.416 27.6035Z" fill="white"/>
<path d="M185.436 9.41064H180.433V33.2507H185.436V9.41064Z" fill="white"/>
<path d="M72.7544 9.41504H66.5809C63.5695 12.8435 58.6626 18.2156 57.0925 20.0521V9.41504H52V33.2529H57.0925V25.0682L59.606 22.666L66.9216 33.255H73.1016L63.1764 19.3249L72.7544 9.41504Z" fill="white"/>
<path d="M117.709 20.3094C117.678 19.9644 117.635 19.6237 117.578 19.2983C117.21 17.1469 116.261 15.1369 114.834 13.4856C113.407 11.8342 111.555 10.6042 109.48 9.92839C107.405 9.25262 105.184 9.15679 103.058 9.65125C100.932 10.1457 98.9818 11.2117 97.4176 12.734L97.2735 12.8737L97.3979 13.031C98.3699 14.2754 99.1151 15.6814 99.5992 17.1845L99.7346 17.6212L99.9922 17.2543C100.761 16.1637 101.823 15.313 103.056 14.8009C104.288 14.2887 105.64 14.136 106.956 14.3604C108.271 14.5847 109.496 15.177 110.489 16.0686C111.482 16.9603 112.202 18.1149 112.566 19.3988C112.657 19.7144 112.724 20.0363 112.767 20.3618C112.811 20.681 112.833 21.0027 112.833 21.3249C112.835 23.0298 112.22 24.6779 111.102 25.9652C109.985 27.2526 108.439 28.0922 106.75 28.3293C105.062 28.5663 103.345 28.1848 101.916 27.2551C100.487 26.3253 99.4421 24.9101 98.9746 23.2706L98.9418 23.1701C98.9418 23.1461 98.9287 23.1199 98.9222 23.0893C98.864 22.867 98.8173 22.6417 98.7824 22.4145C98.7824 22.3927 98.7824 22.3731 98.7824 22.349C98.7824 22.325 98.7824 22.3272 98.7824 22.3141L98.7519 22.0673C98.7273 21.8279 98.715 21.5874 98.7147 21.3467V21.3336C98.7147 20.9973 98.7016 20.6566 98.6732 20.3203C98.6449 19.984 98.599 19.6324 98.5422 19.3092C98.0378 16.3697 96.4553 13.724 94.104 11.8892C91.7527 10.0544 88.8017 9.1624 85.8277 9.38761C82.8538 9.61283 80.0707 10.939 78.0226 13.107C75.9744 15.275 74.8084 18.1289 74.7524 21.1108V33.3398H79.6637V21.5673H79.6746V21.3336C79.6755 19.6285 80.2929 17.9812 81.4129 16.6955C82.5329 15.4099 84.08 14.5725 85.7689 14.3379C87.4578 14.1033 89.1745 14.4872 90.6026 15.4189C92.0306 16.3506 93.0736 17.7672 93.5392 19.4075C93.6303 19.7222 93.6968 20.0434 93.738 20.3684C93.7839 20.6888 93.8066 21.0121 93.8057 21.3358V21.5039V21.576C93.8057 21.8271 93.8253 22.087 93.8472 22.3687C93.8777 22.7093 93.9214 23.05 93.9782 23.3819C94.4011 25.8147 95.5651 28.0575 97.311 29.8037C99.0568 31.55 101.299 32.7144 103.732 33.1378C106.165 33.5613 108.669 33.2231 110.902 32.1695C113.135 31.1159 114.989 29.3983 116.209 27.2515L116.292 27.0987C116.414 26.8803 116.523 26.6619 116.621 26.4436C116.748 26.1793 116.866 25.8998 116.975 25.6159V25.5919C117.028 25.4543 117.078 25.3189 117.126 25.1748C117.237 24.8363 117.329 24.5197 117.405 24.2096C117.539 23.6636 117.636 23.1091 117.694 22.5499C117.733 22.1547 117.755 21.7485 117.755 21.3445V21.3336C117.755 20.9951 117.74 20.6544 117.713 20.3203L117.709 20.3094Z" fill="white"/>
<path d="M178.618 33.2526L177 28.6886L170.174 9.41699H163.703L157.539 27.5727C159.144 25.9028 161.188 24.7185 163.435 24.1551L163.612 23.524C164.968 19.2264 166.16 15.4856 166.748 13.1359H166.782C167.248 14.8829 168.047 17.3178 169.235 20.862L170.421 24.6093L170.801 25.8104C168.231 24.9798 165.459 25.0181 162.913 25.9196C162.351 26.1198 161.804 26.3607 161.277 26.6402L161.255 26.6511C160.737 26.9294 160.238 27.244 159.764 27.5923L159.744 27.6076C159.113 28.074 158.528 28.5998 157.997 29.1778C157.601 29.6125 157.236 30.0752 156.905 30.5623V30.5732C156.827 30.6889 156.75 30.8046 156.687 30.9226L156.63 31.0143C156.573 31.106 156.519 31.1977 156.464 31.2894L156.412 31.379C156.355 31.4794 156.3 31.5799 156.246 31.6825L156.213 31.7415C155.954 32.2282 155.729 32.7324 155.541 33.2505H160.362C161.005 32.2275 161.874 31.3657 162.902 30.7315C163.93 30.0973 165.09 29.7076 166.293 29.5924C167.495 29.4772 168.708 29.6396 169.838 30.0671C170.968 30.4946 171.985 31.1757 172.81 32.0581L172.919 32.1782C173.219 32.5113 173.49 32.8693 173.729 33.2483H178.625H178.649L178.618 33.2526Z" fill="white"/>
<defs>
<linearGradient id="paint0_linear_111_44551" x1="21" y1="0.339844" x2="21" y2="42.3398" gradientUnits="userSpaceOnUse">
<stop stop-color="#7C54E0"/>
<stop offset="1" stop-color="#5320D6"/>
</linearGradient>
</defs>
</svg>
