<svg width="53" height="54" viewBox="0 0 53 54" fill="none" xmlns="http://www.w3.org/2000/svg">
<g filter="url(#filter0_d_111_44976)">
<path d="M26.4985 15C24.6723 14.9984 22.87 15.4145 21.2293 16.2163C19.5886 17.0182 18.153 18.1847 17.0323 19.6265C18.2542 20.1096 19.3312 20.8991 20.1595 21.9191C20.9878 22.9391 21.5395 24.1552 21.7616 25.4502C21.7981 25.6619 21.8263 25.8797 21.8454 26.0975C21.8644 26.3153 21.8712 26.5271 21.8712 26.7449V26.7578C21.871 26.9199 21.8797 27.0818 21.8971 27.2429C21.904 27.297 21.9101 27.3511 21.9169 27.4044C21.9169 27.4265 21.923 27.4455 21.9253 27.4668C21.9491 27.6225 21.9809 27.7767 22.0205 27.9291C22.0291 27.9705 22.0398 28.0114 22.0525 28.0517C22.366 29.153 23.0674 30.1037 24.0271 30.7283C24.9868 31.3529 26.14 31.6093 27.274 31.45C28.4079 31.2908 29.4459 30.7267 30.1965 29.8619C30.947 28.9971 31.3593 27.8899 31.3573 26.7449C31.3574 26.5284 31.3432 26.3121 31.3147 26.0975C31.2852 25.8787 31.2396 25.6623 31.1783 25.4502C30.9339 24.5885 30.4505 23.8136 29.784 23.2152C29.1176 22.6168 28.2953 22.2193 27.4123 22.0688C26.5293 21.9183 25.6218 22.0209 24.7947 22.3647C23.9676 22.7085 23.2548 23.2795 22.7387 24.0116C22.4186 23.0158 21.9257 22.0842 21.2826 21.2593C22.2813 20.2873 23.5266 19.6067 24.884 19.2908C26.2414 18.9749 27.6592 19.0359 28.9845 19.467C30.3098 19.8982 31.4921 20.6831 32.4038 21.7372C33.3155 22.7913 33.9219 24.0744 34.1576 25.4479C34.1941 25.6596 34.2223 25.8775 34.2414 26.0953C34.2604 26.3131 34.2673 26.5248 34.2673 26.7426V26.7555C34.2676 27.0147 34.2546 27.2737 34.2284 27.5316C34.1921 27.889 34.1308 28.2435 34.0449 28.5924C33.9931 28.8019 33.9329 29.0067 33.8659 29.2093C33.8339 29.3045 33.7997 29.3974 33.7646 29.4896C33.6961 29.6693 33.6199 29.846 33.5362 30.0181C33.4524 30.1902 33.3656 30.3593 33.2727 30.5253C32.4933 31.8962 31.3096 32.9929 29.8834 33.6656C28.4572 34.3383 26.858 34.5542 25.3045 34.2837C23.7509 34.0132 22.3188 33.2695 21.2039 32.1543C20.089 31.0391 19.3457 29.6069 19.0755 28.0532C19.039 27.84 19.0108 27.6237 18.9918 27.4059C18.9727 27.1881 18.9636 26.9771 18.9636 26.7593V26.7464C18.9641 26.5291 18.9491 26.312 18.9187 26.0968C18.8908 25.8786 18.846 25.6629 18.7846 25.4517C18.5628 24.6727 18.1455 23.9634 17.5723 23.391C16.9992 22.8187 16.2892 22.4023 15.5099 22.1816C14.4719 24.549 14.2262 27.1884 14.8093 29.7067C15.3923 32.2251 16.7731 34.4879 18.7459 36.1583C20.7187 37.8286 23.1782 38.8173 25.7583 38.977C28.3383 39.1368 30.901 38.4592 33.0649 37.045C35.2287 35.6308 36.8781 33.5557 37.7674 31.1285C38.6568 28.7013 38.7386 26.0518 38.0007 23.5744C37.2627 21.097 35.7445 18.9241 33.672 17.3791C31.5995 15.8341 29.0835 14.9997 26.4985 15ZM21.8712 34.4108H18.9659V31.3927C19.6933 32.5871 20.6878 33.5965 21.8712 34.3415V34.4108Z" fill="url(#paint0_linear_111_44976)"/>
<path d="M26.498 14.751C29.1369 14.7507 31.7056 15.6016 33.8213 17.1787C35.9369 18.7558 37.4869 20.9739 38.2402 23.5029C38.9935 26.032 38.9098 28.7371 38.002 31.2148C37.094 33.6925 35.41 35.8103 33.2012 37.2539C30.9924 38.6974 28.3768 39.3896 25.7432 39.2266C23.1094 39.0635 20.5979 38.0538 18.584 36.3486C16.5703 34.6435 15.1606 32.3334 14.5654 29.7627C13.9703 27.192 14.2217 24.4977 15.2812 22.0811L15.3682 21.8818L15.5781 21.9414C16.3983 22.1738 17.1458 22.6115 17.749 23.2139C18.3522 23.8162 18.7918 24.5629 19.0254 25.3828H19.0244C19.0893 25.6063 19.1375 25.8346 19.167 26.0654H19.166C19.1977 26.291 19.2143 26.5184 19.2139 26.7461V26.7598C19.2139 26.9701 19.2228 27.1735 19.2412 27.3838C19.2596 27.5945 19.2869 27.8042 19.3223 28.0107L19.376 28.291C19.6743 29.6854 20.3698 30.9662 21.3809 31.9775C22.4594 33.0563 23.8449 33.7754 25.3477 34.0371C26.8503 34.2987 28.3969 34.0901 29.7764 33.4395C31.156 32.7887 32.3018 31.7275 33.0557 30.4014C33.1453 30.2411 33.2296 30.0765 33.3115 29.9082C33.3918 29.7431 33.4653 29.5733 33.5312 29.4004C33.5657 29.3098 33.5985 29.2205 33.6289 29.1299C33.694 28.933 33.7518 28.7344 33.8018 28.5322C33.8848 28.1948 33.9443 27.8516 33.9795 27.5059C34.0048 27.2567 34.0179 27.0063 34.0176 26.7559V26.7422C34.0176 26.5299 34.0104 26.3259 33.9922 26.1172C33.983 26.0118 33.9715 25.9063 33.958 25.8018L33.9111 25.4902C33.6831 24.1616 33.0967 22.92 32.2148 21.9004C31.333 20.8809 30.1891 20.1221 28.9072 19.7051C27.6253 19.288 26.2534 19.2286 24.9404 19.5342C23.6984 19.8232 22.5531 20.4277 21.6152 21.2881C22.1179 21.9669 22.5249 22.7106 22.8232 23.5C23.3316 22.9058 23.9721 22.4357 24.6982 22.1338C25.5689 21.7719 26.5247 21.6639 27.4541 21.8223C28.3836 21.9807 29.2496 22.3993 29.9512 23.0293C30.6525 23.659 31.1616 24.4742 31.4189 25.3809L31.5029 25.7197L31.5625 26.0645L31.5957 26.4043C31.6032 26.5174 31.6075 26.6307 31.6074 26.7441L31.6025 26.9697C31.5537 28.0942 31.1263 29.1719 30.3857 30.0254C29.5957 30.9358 28.5023 31.5296 27.3086 31.6973C26.1149 31.8649 24.9009 31.595 23.8906 30.9375C22.8805 30.28 22.1425 29.2794 21.8125 28.1201V28.1191C21.7983 28.0734 21.7852 28.0273 21.7754 27.9805V27.9795C21.7351 27.823 21.7022 27.6646 21.6777 27.5049L21.6768 27.4932V27.4941L21.6738 27.4795C21.6722 27.4701 21.6705 27.4546 21.6689 27.4355C21.6631 27.3898 21.6547 27.3158 21.6494 27.2744L21.6484 27.2695C21.63 27.0996 21.6209 26.9288 21.6211 26.7578V26.7451C21.6211 26.5326 21.6149 26.328 21.5967 26.1191C21.5783 25.9084 21.5509 25.6977 21.5156 25.4932V25.4922C21.3008 24.2397 20.7668 23.0637 19.9658 22.0771C19.1646 21.0905 18.1224 20.3267 16.9404 19.8594L16.6299 19.7363L16.835 19.4727C17.9789 18.001 19.4445 16.8107 21.1191 15.9922C22.7939 15.1737 24.634 14.7495 26.498 14.751ZM19.2158 34.1611H21.166C20.4223 33.6115 19.7651 32.9543 19.2158 32.2109V34.1611Z" stroke="#8D6AE6" stroke-width="0.5"/>
</g>
<defs>
<filter id="filter0_d_111_44976" x="0" y="0.5" width="53" height="53" filterUnits="userSpaceOnUse" color-interpolation-filters="sRGB">
<feFlood flood-opacity="0" result="BackgroundImageFix"/>
<feColorMatrix in="SourceAlpha" type="matrix" values="0 0 0 0 0 0 0 0 0 0 0 0 0 0 0 0 0 0 127 0" result="hardAlpha"/>
<feOffset/>
<feGaussianBlur stdDeviation="7"/>
<feComposite in2="hardAlpha" operator="out"/>
<feColorMatrix type="matrix" values="0 0 0 0 1 0 0 0 0 1 0 0 0 0 1 0 0 0 0.1 0"/>
<feBlend mode="normal" in2="BackgroundImageFix" result="effect1_dropShadow_111_44976"/>
<feBlend mode="normal" in="SourceGraphic" in2="effect1_dropShadow_111_44976" result="shape"/>
</filter>
<linearGradient id="paint0_linear_111_44976" x1="26.5" y1="15" x2="26.5" y2="39" gradientUnits="userSpaceOnUse">
<stop stop-color="#521ED6"/>
<stop offset="1" stop-color="#7E56E2"/>
</linearGradient>
</defs>
</svg>
