<svg width="168" height="44" viewBox="0 0 168 44" fill="none" xmlns="http://www.w3.org/2000/svg">
<path d="M21.9172 0.0802085C18.5814 0.07731 15.2891 0.837289 12.2921 2.30204C9.29507 3.76678 6.67273 5.8975 4.62556 8.53125C6.8576 9.41364 8.82486 10.8559 10.3379 12.719C11.8509 14.5822 12.8588 16.8035 13.2644 19.1691C13.3312 19.5559 13.3826 19.9537 13.4174 20.3516C13.4522 20.7494 13.4647 21.1362 13.4647 21.534V21.5577C13.4643 21.8537 13.4801 22.1495 13.512 22.4438C13.5245 22.5426 13.5357 22.6414 13.5482 22.7387C13.5482 22.7791 13.5593 22.8139 13.5635 22.8528C13.607 23.1371 13.665 23.4189 13.7374 23.6972C13.7531 23.7728 13.7726 23.8475 13.7958 23.9212C14.3685 25.9329 15.6496 27.6695 17.4027 28.8104C19.1557 29.9514 21.2623 30.4196 23.3336 30.1287C25.4049 29.8378 27.3011 28.8074 28.672 27.2277C30.0429 25.648 30.7961 23.6256 30.7925 21.534C30.7927 21.1386 30.7666 20.7436 30.7146 20.3516C30.6607 19.9518 30.5775 19.5566 30.4656 19.1691C30.0191 17.5951 29.1361 16.1796 27.9187 15.0865C26.7012 13.9934 25.1992 13.2674 23.5863 12.9925C21.9734 12.7175 20.3156 12.9049 18.8048 13.533C17.294 14.161 15.9919 15.204 15.0492 16.5413C14.4646 14.7223 13.5642 13.0205 12.3894 11.5138C14.2138 9.73836 16.4885 8.49501 18.9679 7.91802C21.4474 7.34104 24.0374 7.45233 26.4582 8.23989C28.879 9.02745 31.0387 10.4613 32.704 12.3868C34.3694 14.3122 35.4771 16.6559 35.9076 19.165C35.9744 19.5517 36.0259 19.9495 36.0606 20.3474C36.0954 20.7453 36.1079 21.132 36.1079 21.5299V21.5535C36.1085 22.0269 36.0848 22.5 36.037 22.971C35.9706 23.624 35.8586 24.2715 35.7017 24.9089C35.6071 25.2914 35.4972 25.6656 35.3748 26.0357C35.3164 26.2096 35.2538 26.3793 35.1898 26.5476C35.0646 26.8759 34.9255 27.1987 34.7725 27.513C34.6194 27.8274 34.4609 28.1363 34.2911 28.4395C32.8676 30.9436 30.7054 32.947 28.1002 34.1758C25.4949 35.4047 22.5738 35.799 19.736 35.3048C16.8982 34.8107 14.2823 33.4523 12.2457 31.4152C10.2091 29.3782 8.85135 26.7619 8.35793 23.924C8.29115 23.5344 8.23968 23.1394 8.2049 22.7415C8.17013 22.3436 8.15343 21.9583 8.15343 21.5605V21.5368C8.15433 21.1398 8.1269 20.7433 8.07136 20.3502C8.02048 19.9517 7.93862 19.5577 7.82652 19.1719C7.42128 17.7489 6.65899 16.4531 5.61205 15.4077C4.5651 14.3622 3.26827 13.6017 1.84471 13.1984C-0.0512962 17.523 -0.500167 22.3441 0.564914 26.9443C1.63 31.5445 4.15208 35.6778 7.75578 38.729C11.3595 41.7802 15.8521 43.5861 20.565 43.878C25.2779 44.1698 29.959 42.932 33.9116 40.3488C37.8642 37.7656 40.877 33.9751 42.5016 29.5414C44.1261 25.1078 44.2755 20.2681 42.9276 15.7427C41.5796 11.2173 38.8064 7.24809 35.0207 4.42596C31.2349 1.60383 26.639 0.0796261 21.9172 0.0802085ZM13.4647 35.537H8.15761V30.024C9.48627 32.2058 11.3029 34.0495 13.4647 35.4104V35.537Z" fill="#F5F6F7"/>
<path d="M131.451 27.0851H131.424C130.793 23.5393 128.836 16.033 127.841 12.3188H124.081C122.952 16.9939 121.083 23.7308 120.347 27.2854H120.319C120.092 25.158 119.266 21.2133 117.452 12.3188H112.988L117.913 31.675H122.244C123.278 27.7747 125.024 21.263 125.728 17.8183H125.756C126.439 21.1353 128.139 27.3918 129.159 31.675H133.495L138.736 12.3188H134.674C133.995 15.3274 132.096 22.8231 131.451 27.0851Z" fill="#F5F6F7"/>
<path d="M168 12.3152H163.938V31.6696H168V12.3152Z" fill="#F5F6F7"/>
<path d="M76.5203 12.3188H71.5084C69.0636 15.1023 65.0799 19.4635 63.8052 20.9545V12.3188H59.6709V31.6715H63.8052V25.0268L65.8458 23.0766L71.7849 31.6733H76.8021L68.7444 20.3641L76.5203 12.3188Z" fill="#F5F6F7"/>
<path d="M93.9332 27.6913L93.5981 27.1364V31.7281H97.5853V31.3611L97.5002 31.3079C96.0489 30.3928 94.8282 29.1551 93.9332 27.6913Z" fill="#F5F6F7"/>
<path d="M113.017 21.1635C112.992 20.8834 112.956 20.6069 112.91 20.3427C112.612 18.5961 111.841 16.9643 110.683 15.6236C109.524 14.2829 108.021 13.2844 106.336 12.7357C104.651 12.1871 102.848 12.1093 101.122 12.5108C99.3965 12.9122 97.8131 13.7776 96.5432 15.0134L96.4262 15.1269L96.5272 15.2546C97.3163 16.2649 97.9213 17.4063 98.3143 18.6266L98.4242 18.9811L98.6334 18.6833C99.2577 17.7978 100.12 17.1073 101.12 16.6915C102.121 16.2757 103.219 16.1517 104.287 16.3338C105.355 16.516 106.349 16.9968 107.155 17.7207C107.961 18.4446 108.546 19.3819 108.842 20.4242C108.915 20.6804 108.97 20.9418 109.005 21.2061C109.04 21.4652 109.058 21.7264 109.058 21.9879C109.06 23.3721 108.561 24.7101 107.653 25.7552C106.746 26.8003 105.491 27.482 104.12 27.6744C102.749 27.8669 101.355 27.5571 100.195 26.8023C99.0349 26.0475 98.1868 24.8986 97.8072 23.5675L97.7807 23.486C97.7807 23.4665 97.77 23.4452 97.7647 23.4204C97.7174 23.2399 97.6796 23.057 97.6512 22.8726C97.6512 22.8549 97.6512 22.8389 97.6512 22.8194C97.6512 22.7999 97.6512 22.8017 97.6512 22.791L97.6264 22.5907C97.6065 22.3963 97.5965 22.201 97.5963 22.0056V21.995C97.5963 21.722 97.5856 21.4454 97.5626 21.1724C97.5395 20.8994 97.5023 20.6139 97.4562 20.3516C97.0467 17.9651 95.762 15.8172 93.8531 14.3276C91.9442 12.838 89.5484 12.1139 87.134 12.2967C84.7196 12.4796 82.4602 13.5562 80.7974 15.3163C79.1346 17.0764 78.188 19.3933 78.1426 21.8142V31.7422H82.1298V22.1847H82.1386V21.995C82.1393 20.6107 82.6406 19.2734 83.5498 18.2296C84.4591 17.1859 85.7151 16.5061 87.0862 16.3156C88.4573 16.1251 89.8511 16.4368 91.0104 17.1932C92.1698 17.9496 93.0166 19.0997 93.3946 20.4313C93.4685 20.6868 93.5225 20.9476 93.5559 21.2114C93.5932 21.4715 93.6116 21.734 93.6109 21.9968V22.1333V22.1918C93.6109 22.3957 93.6268 22.6066 93.6445 22.8353C93.6694 23.1119 93.7048 23.3885 93.7509 23.658C94.0943 25.633 95.0393 27.4538 96.4566 28.8715C97.874 30.2891 99.6946 31.2345 101.67 31.5782C103.645 31.922 105.678 31.6475 107.491 30.7921C109.304 29.9368 110.808 28.5423 111.799 26.7995L111.866 26.6754C111.965 26.4981 112.054 26.3208 112.134 26.1435C112.237 25.929 112.332 25.7021 112.421 25.4716V25.4521C112.464 25.3404 112.504 25.2305 112.543 25.1135C112.634 24.8387 112.708 24.5816 112.77 24.3299C112.879 23.8866 112.957 23.4364 113.004 22.9825C113.036 22.6616 113.054 22.3319 113.054 22.0039V21.995C113.054 21.7202 113.042 21.4436 113.02 21.1724L113.017 21.1635Z" fill="#F5F6F7"/>
<path d="M162.465 31.6712L161.151 27.9659L155.609 12.3203H150.356L145.352 27.06C146.655 25.7043 148.314 24.7428 150.138 24.2854L150.282 23.7731C151.383 20.2841 152.351 17.2471 152.828 15.3395H152.856C153.234 16.7578 153.883 18.7346 154.847 21.6119L155.81 24.6542L156.118 25.6292C154.032 24.9549 151.782 24.986 149.715 25.7179C149.258 25.8805 148.815 26.076 148.387 26.3029L148.369 26.3118C147.948 26.5377 147.543 26.7931 147.158 27.0759L147.142 27.0883C146.63 27.467 146.155 27.8938 145.724 28.363C145.402 28.716 145.106 29.0916 144.838 29.487V29.4959C144.774 29.5898 144.712 29.6838 144.66 29.7795L144.614 29.854C144.568 29.9285 144.524 30.0029 144.479 30.0774L144.437 30.1501C144.391 30.2316 144.346 30.3132 144.302 30.3965L144.276 30.4444C144.065 30.8395 143.883 31.2488 143.729 31.6694H147.644C148.166 30.8389 148.871 30.1393 149.706 29.6244C150.54 29.1095 151.482 28.7931 152.459 28.6996C153.435 28.6061 154.42 28.7379 155.337 29.085C156.254 29.4321 157.079 29.9851 157.749 30.7014L157.838 30.7989C158.081 31.0694 158.301 31.36 158.496 31.6676H162.471H162.49L162.465 31.6712Z" fill="#F5F6F7"/>
</svg>
